<?xml version="1.0" encoding="UTF-8" standalone="no"?>
<!-- Created with Inkscape (http://www.inkscape.org/) -->

<svg
   xmlns:dc="http://purl.org/dc/elements/1.1/"
   xmlns:cc="http://creativecommons.org/ns#"
   xmlns:rdf="http://www.w3.org/1999/02/22-rdf-syntax-ns#"
   xmlns:svg="http://www.w3.org/2000/svg"
   xmlns="http://www.w3.org/2000/svg"
   xmlns:sodipodi="http://sodipodi.sourceforge.net/DTD/sodipodi-0.dtd"
   xmlns:inkscape="http://www.inkscape.org/namespaces/inkscape"
   width="500"
   height="180"
   id="svg2"
   version="1.1"
   inkscape:version="0.48.4 r9939"
   sodipodi:docname="1-pulling-rock.svg">
  <defs
     id="defs4" />
  <sodipodi:namedview
     id="base"
     pagecolor="#ffffff"
     bordercolor="#666666"
     borderopacity="1.0"
     inkscape:pageopacity="0.0"
     inkscape:pageshadow="2"
     inkscape:zoom="2.5952813"
     inkscape:cx="245.1165"
     inkscape:cy="114.71276"
     inkscape:document-units="px"
     inkscape:current-layer="layer1"
     showgrid="false"
     borderlayer="false"
     inkscape:window-width="1920"
     inkscape:window-height="1032"
     inkscape:window-x="0"
     inkscape:window-y="0"
     inkscape:window-maximized="1" />
  <metadata
     id="metadata7">
    <rdf:RDF>
      <cc:Work
         rdf:about="">
        <dc:format>image/svg+xml</dc:format>
        <dc:type
           rdf:resource="http://purl.org/dc/dcmitype/StillImage" />
        <dc:title></dc:title>
      </cc:Work>
    </rdf:RDF>
  </metadata>
  <g
     inkscape:label="Layer 1"
     inkscape:groupmode="layer"
     id="layer1"
     transform="translate(0,-872.36218)">
    <path
       style="fill:#000000;fill-opacity:1;stroke:none"
       d="m 278.56347,962.04699 c 6.54333,-3.41027 13.46719,7.85953 16.75673,14.46438 6.42644,12.90324 10.12253,30.71823 2.82968,43.15233 -8.32445,14.193 -28.1139,21.3807 -44.56722,21.2225 -3.16352,-0.03 -8.42149,-1.0815 -8.48898,-4.2445 -0.31644,-14.8266 32.04486,-8.4298 38.90788,-21.5762 8.22155,-15.74866 -21.19236,-44.80763 -5.43809,-53.01851 z"
       id="path3763"
       inkscape:connector-curvature="0"
       sodipodi:nodetypes="aaaaaaa" />
    <path
       sodipodi:nodetypes="aaaaaaa"
       inkscape:connector-curvature="0"
       id="path3817"
       d="m 279.58695,972.32405 c 1.42586,-2.9826 6.26574,-5.18945 9.20848,-3.68304 16.38766,8.38904 20.47476,36.61959 13.34609,53.59349 -4.56968,10.8808 -19.01752,20.5846 -30.51975,17.9443 -2.07164,-0.4755 -3.87237,-3.2067 -3.53707,-5.3056 1.65576,-10.3646 21.62578,-9.4367 24.75956,-19.4539 4.48733,-14.3439 -19.7396,-29.53563 -13.25731,-43.09525 z"
       style="fill:#000000;fill-opacity:1;fill-rule:nonzero;stroke:none" />
    <path
       style="fill:#000000;fill-opacity:1;stroke:#000000;stroke-width:0.91797185px;stroke-linecap:butt;stroke-linejoin:miter;stroke-opacity:1"
       d="m 276.72968,975.78533 c 3.63509,5.24426 13.64255,3.15931 19.1426,-0.0757 8.62826,-5.07503 7.58187,-19.14676 14.69629,-26.1886 7.30683,-7.2323 23.31475,-5.23894 27.05024,-14.81715 1.22638,-3.14453 -0.29282,-7.95177 -3.24243,-9.59247 -12.61355,-7.01624 -31.30324,0.34835 -42.16467,9.85406 -10.95084,9.58395 -23.77229,28.85976 -15.48203,40.81988 z"
       id="path3757"
       inkscape:connector-curvature="0"
       sodipodi:nodetypes="aaaaaaa" />
    <path
       sodipodi:type="arc"
       style="fill:#000000;fill-opacity:1;stroke:none"
       id="path3761"
       sodipodi:cx="369"
       sodipodi:cy="32"
       sodipodi:rx="20"
       sodipodi:ry="23"
       d="m 389,32 c 0,12.702549 -8.95431,23 -20,23 -11.04569,0 -20,-10.297451 -20,-23 0,-12.702549 8.95431,-23 20,-23 11.04569,0 20,10.297451 20,23 z"
       transform="matrix(0.84782615,0.20393156,-0.21246604,0.81377005,47.299548,825.38868)" />
    <path
       style="fill:#000000;fill-opacity:1;stroke:none"
       d="m 326.80023,925.57741 c -15.48377,2.95768 -26.64635,30.89072 -17.68542,43.85979 6.16749,8.92615 25.52196,7.56574 32.54116,-0.70741 1.61809,-1.90716 0.81461,-5.77346 -1.06113,-7.42787 -5.30613,-4.68001 -13.49098,-1.01179 -21.22248,-0.3537 -4.09526,-8.64359 17.42822,-15.73645 16.4286,-25.91551 -0.42528,-4.33062 -4.72656,-10.27174 -9.00073,-9.4553 z"
       id="path3819"
       inkscape:connector-curvature="0"
       sodipodi:nodetypes="aaaacaa" />
    <path
       style="fill:none;stroke:#000000;stroke-opacity:1"
       d="m 342.15944,964.82302 c 0,0 3.09097,-27.12831 -12.33007,-40.45804 -30.31362,-13.49916 -149.11678,47.00839 -149.11678,47.00839"
       id="path3853"
       inkscape:connector-curvature="0"
       sodipodi:nodetypes="ccc" />
    <path
       style="fill:#5b5b5b;fill-opacity:1;stroke:#000000;stroke-width:4;stroke-linecap:butt;stroke-linejoin:miter;stroke-miterlimit:4;stroke-opacity:1;stroke-dasharray:none"
       d="m 63.191608,911.64959 c -5.664788,1.39445 -6.802773,9.98329 -8.352682,15.0624 -0.886425,6.89736 1.303558,13.56687 1.802333,20.38655 0.973002,5.14333 -0.385723,12.59509 -0.77063,15.41259 0.459298,6.09287 -3.487374,11.55578 -2.697202,17.70605 0.09906,7.72073 -0.283939,15.55364 0.385314,23.13732 1.557196,3.9772 -0.663387,8.1169 0,12.3301 -1.544564,6.4448 -0.594839,14.0366 3.082518,18.8804 4.560155,2.3004 9.812295,3.8321 15.012532,3.4678 5.017353,-0.1759 10.049578,0.119 14.845471,1.5843 4.421417,-0.226 8.620496,0.7613 12.904556,-0.4284 4.289662,0.2656 8.363692,-2.7621 11.566812,-1.9265 3.69181,-0.809 7.72321,-0.1885 11.55944,-0.3853 4.25085,1.0777 8.16039,2.9713 12.68959,2.3118 4.73784,-0.315 6.01988,1.3004 11.2014,0.7468 5.58538,-1.2347 9.43117,5.6701 14.42724,1.4686 2.64434,-2.9433 5.19276,-5.85 9.435,-4.9126 3.54256,0.2664 7.83645,-0.9626 10.42929,1.9266 1.49223,2.2468 2.80719,-0.4979 2.31189,-3.831 -0.21252,-4.691 -1.2821,-9.2504 -1.54126,-13.8824 -0.1499,-6.397 0.33349,-12.85 -0.30585,-19.2034 -0.58383,-0.6734 -0.90074,-8.17646 -0.8501,-11.6144 0.0311,-5.4096 0.61866,-10.76223 0.38532,-16.19796 -0.11484,-9.37301 0.23774,-18.78552 -0.19265,-28.13166 -0.42648,-10.37271 -0.0806,-20.81097 -0.19267,-31.21048 0.60927,-2.16981 -4.08633,-0.73082 -5.77972,-1.15595 -8.30579,-0.0267 -16.58869,0.25345 -24.66014,-0.77063 -5.30466,-0.70091 -10.06852,2.33324 -15.38679,1.54126 -8.6091,0.16406 -17.14782,-0.61421 -25.76081,-0.38531 -5.12209,-0.0748 -11.128905,0.15117 -15.691181,-0.11409 -4.823622,-1.22579 -7.743298,1.08679 -12.117804,0.88472 -4.499647,-0.003 -9.005721,0.005 -13.500755,0 -3.010145,-0.38746 -4.197496,-2.52524 -4.238462,-2.69721 z"
       id="path3909"
       inkscape:connector-curvature="0" />
  </g>
</svg>
